<svg version="1.1" xmlns="http://www.w3.org/2000/svg" xmlns:xlink="http://www.w3.org/1999/xlink" width="144.07463" height="59.2495" viewBox="0,0,144.07463,59.2495"><g transform="translate(-111.10381,-195)"><g data-paper-data="{&quot;isPaintingLayer&quot;:true}" fill="#0052ff" fill-rule="nonzero" stroke="none" stroke-width="0.5" stroke-linecap="butt" stroke-linejoin="miter" stroke-miterlimit="10" stroke-dasharray="" stroke-dashoffset="0" style="mix-blend-mode: normal"><path d="M254.39277,243.73223c1.76777,1.76777 0,3.53553 0,3.53553l-1,1c-7.42429,7.27731 -17.17908,5.73223 -26.76777,5.73223c-9.33102,0 -18.9964,0.67146 -28.29867,-0.18867c-8.09848,-0.74882 -16.31499,-2.39905 -24.35011,-3.68108c-5.01279,-0.80438 -9.59499,-2.04123 -14.39837,-3.67741c-1.75901,-0.59917 -3.66768,-0.88031 -5.26717,-1.82622c-2.71207,-1.60387 -4.59727,-4.31423 -7.00484,-6.34681c-7.17385,-6.05649 -13.89203,-13.01563 -21.45761,-18.58139c-2.82484,-2.07815 -6.04314,-3.76123 -8.34455,-6.40734c-1.10677,-1.27254 -1.78265,-2.87018 -2.81202,-4.20611c-0.66129,-0.85823 -1.76746,-1.37929 -2.24214,-2.35323c-1.66084,-3.40766 -1.30906,-5.68243 -1.3245,-9.23175c0,0 0,-2.5 2.5,-2.5c2.5,0 2.5,2.5 2.5,2.5c-0.00983,1.93937 -0.30218,4.88613 0.6755,6.76825c0.37012,0.71251 1.2641,1.01363 1.75786,1.64677c1.01273,1.29862 1.668,2.85997 2.73498,4.1144c3.0994,3.64392 7.83583,5.90877 11.46161,9.00926c5.963,5.09911 11.7847,10.358 17.77713,15.42127c2.21999,1.87576 3.90621,4.43302 6.40725,5.91342c1.26963,0.75151 2.81654,0.87999 4.21966,1.33606c4.5769,1.48767 8.84191,2.72776 13.60511,3.48329c7.92791,1.26518 16.03405,2.8981 24.02352,3.63994c9.14561,0.84919 18.66318,0.16734 27.83739,0.16734c7.8263,0 17.23545,1.89062 23.23223,-4.26777l1,-1c0,0 1.76777,-1.76777 3.53553,0z"/></g></g></svg>