<svg version="1.1" xmlns="http://www.w3.org/2000/svg" xmlns:xlink="http://www.w3.org/1999/xlink" width="68.1161" height="95.80682" viewBox="0,0,68.1161,95.80682"><g transform="translate(-208.56695,-143.94318)"><g data-paper-data="{&quot;isPaintingLayer&quot;:true}" fill-rule="nonzero" stroke-linecap="butt" stroke-linejoin="miter" stroke-miterlimit="10" stroke-dasharray="" stroke-dashoffset="0" style="mix-blend-mode: normal"><path d="" fill="#ffffff" stroke="none" stroke-width="0.5"/><path d="" fill="#ffffff" stroke="none" stroke-width="0.5"/><path d="" fill="#ffffff" stroke="none" stroke-width="0.5"/><path d="" fill="#ffffff" stroke="none" stroke-width="0.5"/><path d="" fill="#ffffff" stroke="none" stroke-width="0.5"/><path d="" fill="#ffffff" stroke="none" stroke-width="0.5"/><path d="" fill="#ffffff" stroke="#000000" stroke-width="2"/><path d="" fill="#ffffff" stroke="#000000" stroke-width="2"/><path d="" fill="#ffffff" stroke="#000000" stroke-width="2"/><path d="" fill="#ffffff" stroke="#000000" stroke-width="2"/><path d="" fill="#ffffff" stroke="#000000" stroke-width="2"/><path d="M209.59825,212.31555l2.07517,-66.46554l63.97835,0.83444l-2.07517,66.46554z" fill="#ffffff" stroke="#000000" stroke-width="2"/><path d="" fill="#ffffff" stroke="#000000" stroke-width="2"/><path d="" fill="#000000" stroke="none" stroke-width="0.5"/><path d="M235.87501,197.5c0,-1.51878 1.23122,-2.75 2.75,-2.75c1.51878,0 2.75,1.23122 2.75,2.75c0,1.51878 -1.23122,2.75 -2.75,2.75c-1.51878,0 -2.75,-1.23122 -2.75,-2.75z" fill="#000000" stroke="none" stroke-width="0.5"/><path d="M227.62501,194.25h-1c-0.46402,-0.17303 -0.95577,-0.75342 -1.39205,-0.51908c-0.35657,0.19153 0.09129,0.80512 0.10654,1.20959c0.12426,3.29714 0.11648,5.6206 0.9534,8.89253c0,0 0.66697,2.66789 -2.00092,3.33486c-2.66789,0.66697 -3.33486,-2.00092 -3.33486,-2.00092c-0.76788,-3.13298 -2.20067,-9.29005 -0.73398,-13.29852c-0.07655,-0.15018 -0.14605,-0.31596 -0.207,-0.49882c-0.86963,-2.60888 1.73925,-3.47851 1.73925,-3.47851c4.34978,-1.40245 8.11181,-0.35662 12.42913,-1.10561c7.27313,-1.26178 17.26024,-3.72656 19.15499,6.27399c0.2135,1.12685 0.02367,2.29367 0.03551,3.4405v2c0,0 0,2.75 -2.75,2.75c-2.75,0 -2.75,-2.75 -2.75,-2.75v-2c0.01156,-0.83305 0.37478,-5.14057 -1.30238,-5.45933c-3.71551,-0.70618 -7.96205,0.60384 -11.50712,1.17382c-1.66082,0.26703 -3.24547,0.23379 -4.80986,0.19741c-0.52836,1.8381 -2.63064,1.8381 -2.63064,1.8381z" fill="#000000" stroke="none" stroke-width="0.5"/><path d="M262.62501,196.25c-2.75,0 -2.75,-2.75 -2.75,-2.75v-2c0,-2 -0.08454,-4.00179 0,-6c0.0276,-0.65236 0.44708,-1.3395 0.20933,-1.94762c-0.21705,-0.55519 -0.98236,-0.68632 -1.40387,-1.10784c-0.42152,-0.42152 -0.55264,-1.18682 -1.10784,-1.40387c-0.60812,-0.23775 -1.29526,0.18173 -1.94762,0.20933c-1.99821,0.08454 -4,0 -6,0c-5,0 -10,0 -15,0c-4.39071,0 -8.85758,-0.22495 -12.05546,3.19454c0,0 -1.94454,1.94454 -3.88909,0c-1.94454,-1.94454 0,-3.88909 0,-3.88909c7.7101,-7.38909 21.07695,-4.80546 30.94454,-4.80546c2.66449,0 7.63011,-0.76922 10.05238,0.20933c1.20117,0.48525 1.97612,1.68008 2.89216,2.59613c0.91604,0.91604 2.11088,1.69099 2.59613,2.89216c0.97855,2.42227 0.20933,7.38789 0.20933,10.05238v2c0,0 0,2.75 -2.75,2.75z" fill="#000000" stroke="none" stroke-width="0.5"/><path d="M273.08466,175.72984c-1.22984,2.45967 -3.68951,1.22984 -3.68951,1.22984l-2.71471,-1.51513c-1.28042,-1.40854 -3.42117,-1.67324 -5.16798,-2.42963c-1.9952,-0.86395 -4.13518,-3.01798 -6.09569,-4.04455c-4.03261,-2.11157 -10.45568,-0.72037 -14.79178,-0.72037c-3.26696,0 -6.74904,-0.76073 -9.7932,0.72106c-2.31137,1.12509 -3.50187,3.76751 -5.3484,5.55597c-0.96435,0.93403 -2.22199,1.50741 -3.33298,2.26112c0,0 -2.28814,1.52543 -3.81356,-0.76271c-1.52543,-2.28814 0.76271,-3.81356 0.76271,-3.81356c3.65294,-2.3817 5.32907,-6.24462 9.31862,-8.18292c3.92003,-1.90452 8.01012,-1.27894 12.2068,-1.27894c5.45181,0 12.11244,-1.18474 17.20822,1.27963c2.13263,1.03136 3.72325,3.03088 5.90431,3.95545c1.34673,0.57089 2.94601,0.44438 4.2424,1.12186c1.05286,0.55022 1.72641,1.63234 2.58962,2.44851l1.28529,0.48487c0,0 2.45967,1.22984 1.22984,3.68951z" fill="#000000" stroke="none" stroke-width="0.5"/><path d="M267.49464,165.10888c-2.60888,0.86963 -3.47851,-1.73925 -3.47851,-1.73925l-1,-3c-0.11189,-0.64169 0.08617,-1.42875 -0.33566,-1.92508c-0.32672,-0.38443 -0.99202,-0.20588 -1.49596,-0.23005c-2.82876,-0.1357 -5.7259,0.03551 -8.5595,0.03551c-5.33333,0 -10.66667,0 -16,0c-1.65068,0 -3.44436,-0.89122 -4.94762,-0.20933c-0.8586,0.38947 -1.124,1.65141 -2,2c-1.00866,0.40138 -2.22039,-0.23593 -3.25547,0.09133c-2.03894,0.64466 -3.4922,2.46995 -5.27148,3.65614c0,0 -2.28814,1.52543 -3.81356,-0.76271c-1.52543,-2.28814 0.76271,-3.81356 0.76271,-3.81356c0.79968,-0.53312 6.16207,-4.14675 6.72852,-4.34386c0.8645,-0.30083 1.89532,0.43296 2.74453,0.09133c0.87468,-0.35187 1.11435,-1.67671 2,-2c0.71478,-0.26092 5.90568,-0.20933 7.05238,-0.20933c5.33333,0 10.66667,0 16,0c3.98634,0 10.7404,-1.23064 13.94454,1.80546c1.06504,1.00919 1.10956,2.71661 1.66434,4.07492l1,3c0,0 0.86963,2.60888 -1.73925,3.47851z" fill="#000000" stroke="none" stroke-width="0.5"/><text transform="translate(227.62501,233.5) scale(0.5,0.5)" font-size="40" xml:space="preserve" fill="#ffffff" fill-rule="nonzero" stroke="none" stroke-width="1" stroke-linecap="butt" stroke-linejoin="miter" stroke-miterlimit="10" stroke-dasharray="" stroke-dashoffset="0" font-family="Sans Serif" font-weight="normal" text-anchor="start" style="mix-blend-mode: normal"><tspan x="0" dy="0">wifi</tspan></text><path d="M210.50697,212.73607c-2.23607,-1.11803 -1.11803,-3.3541 -1.11803,-3.3541l1.15594,-2.26872c1.4967,-2.22975 3.42547,-4.1369 5.14677,-6.19822c4.14575,-4.96469 7.5365,-11.47052 14.20326,-13.21968c1.09351,-3.45387 4.30412,-6.42475 7.41577,-8.32197c1.42973,-0.87173 3.36844,-1.12462 4.38097,-2.45835c2.35345,-3.09999 3.74104,-6.71911 5.90525,-9.8768c1.28105,-1.86913 3.65581,-2.70592 5.26034,-4.30599c0.92702,-0.92445 1.2131,-2.42011 2.25028,-3.219c2.5861,-1.99194 6.2117,-1.84451 8.93251,-3.94659c1.26006,-0.97351 1.62515,-2.74178 2.33918,-4.16502c0.10553,-0.21034 3.92943,-5.93402 4.16566,-6.28837c0,0 1.38675,-2.08013 3.46688,-0.69338c2.08013,1.38675 0.69338,3.46688 0.69338,3.46688c-1.27198,1.90798 -2.81168,3.65919 -3.83434,5.71163c-1.02399,2.05512 -1.88363,4.38113 -3.66082,5.83498c-2.78245,2.27621 -3.56515,2.43098 -6.7944,3.43835c-0.74933,0.23376 -1.67329,0.10871 -2.27309,0.61506c-0.83688,0.70649 -0.97639,2.00546 -1.74972,2.781c-1.46501,1.46919 -3.58136,1.89313 -4.73966,3.69401c-2.13483,3.31914 -3.52389,7.02688 -6.09475,10.1232c-1.41432,1.7034 -3.71117,2.4183 -5.61903,3.54165c-3.00174,1.76744 -5.22772,4.53713 -6.58423,7.67803c-3.34014,1.29271 -6.36588,3.38314 -8.96233,5.96311c-2.51076,2.49483 -2.67625,4.22232 -4.83441,6.81721c-1.61225,1.93851 -3.46225,3.69884 -4.85323,5.80178l-0.84406,1.73128c0,0 -1.11803,2.23607 -3.3541,1.11803z" fill="#ff0000" stroke="none" stroke-width="0.5"/></g></g></svg>