<svg version="1.1" xmlns="http://www.w3.org/2000/svg" xmlns:xlink="http://www.w3.org/1999/xlink" width="663.89586" height="626.09252" viewBox="0,0,663.89586,626.09252"><g transform="translate(75.70546,120.04761)"><g data-paper-data="{&quot;isPaintingLayer&quot;:true}" fill-rule="nonzero" stroke="none" stroke-linecap="butt" stroke-linejoin="miter" stroke-miterlimit="10" stroke-dasharray="" stroke-dashoffset="0" style="mix-blend-mode: normal"><path d="M239.58922,-46.70614l1.20554,-1.1593l0.41986,-0.46035l0.23263,-0.16712l0.97161,-0.93435l2.48817,-1.55119l3.63175,-2.60908l0.85981,-0.19107l0.67317,-0.41967l3.98034,-0.61444l5.57132,-1.23808l0.68867,0.27172l0.98179,-0.15156l6.92447,3.27103l5.33193,2.10375l0.52036,0.6608l0.76051,0.35925l0.01729,0.02519l5.97558,-8.01987l12.05793,-17.92395l0.35449,-0.42788l0.28417,-0.47748l17,-23l2.63597,-2.90913l1.30022,-0.94053l2.19279,-2.2537l2.17645,-0.90686l1.6375,-1.18451l2.62916,-0.59326l4.03845,-1.68269l1.80227,0.36475l2.60666,-0.58819l5.92172,2.31417l4.34354,0.87905l1.63731,1.45822l2.04213,0.79805l2.75309,3.47269l4.74782,4.22853l0.65777,2.58998l1.14235,1.44093l0.33152,4.36241l0.66345,2.61232l-0.31319,1.9966l0.15569,2.04872l27.72535,-29.70574l2.95087,-2.58915l1.18826,-0.6675l2.21227,-1.8791l2.51945,-0.77892l1.94268,-1.09128l2.43838,-0.26316l3.94792,-1.22054l1.93113,0.58604l2.97204,-0.32076l5.40942,2.86427l4.01394,1.2181l1.65637,1.78431l2.15161,1.13927l0.31659,0.50959l8.06811,0.30364l1.57265,1.15169l0.02289,0.00243l5.23835,3.85049l5.24518,3.84117l0.00919,0.0211l1.57061,1.15449l3.81298,10.6957l-0.02765,0.4466l0.6134,1.40833l-1.05095,5.65659l-0.09225,1.48952l-0.56025,2.02246l-0.37073,1.99541l-0.22478,0.33716l1.39655,-0.12775l5.27172,-0.98407l0.95403,0.41457l1.41434,-0.12937l6.4142,3.53124l4.9487,2.15045l0.70641,0.96289l1.04616,0.57595l1.44271,2.40891l4.23013,-2.27549l1.19815,0.12136l1.54041,-0.62347l6.97656,1.48619l5.18035,0.52473l1.12527,0.81852l1.36094,0.28991l3.85276,3.50252l5.76847,4.19595l0.56583,1.5625l0.8911,0.81009l1.22125,5.02293l1.18817,3.28101l-0.07407,1.30124l0.20496,0.84298l1.82552,0.46363l0.43286,0.05068l0.1191,0.0895l2.99932,0.76173l4.01922,4.51281l4.831,3.63057l1.00819,2.92571l0.09908,0.11125l0.08645,0.42716l2.50568,7.27139l-0.27296,3.76086l0.65062,3.21478l-1.45628,3.49507l-0.66227,2.29585l-9.50046,23.75116l1.39295,1.1043l1.45542,3.72426l3.25171,4.95272l-0.04397,3.25554l0.78634,2.01217l-0.86533,3.8349l-0.03042,2.25137l-0.97127,2.18778l-0.63238,2.80249l-0.13732,0.18984l2.13609,0.64707l5.24572,1.06318l0.7351,0.74853l1.37165,0.4155l4.61006,5.67541l1.20021,1.22212l20.25303,-14.46645l3.40569,-1.9526l0.45918,-0.1482l1.69694,-1.09987l3.67375,-0.63353l2.75248,-0.88837l1.56225,0.1443l3.20139,-0.55207l2.36376,1.06612l4.17949,0.38606l4.06697,3.33332l3.03753,1.37001l1.91834,2.69187l2.55651,2.09533l1.16226,3.12293l3.05175,4.28229l0.1036,4.196l0.90445,2.43022l-0.76649,3.15692l0.03872,1.56842l-1.07178,2.68639l-0.87959,3.62271l-1.21169,1.61899l-0.1788,0.44815l-2.1776,3.26641l-44.88484,54.64242l-39.11435,64.17791l0.65938,0.85164l1.94273,1.25978l1.17112,2.76201l2.42017,3.12586l1.73859,6.68237l0.51458,1.21361l-0.06542,0.51276l0.08299,0.31899l0.18111,3.92155l-0.20524,3.83121l0.59584,1.5661l0.3277,2.09491l0.05882,0.21286l0.01645,0.26834l0.20374,1.30246l1.71976,30.9556l29.14075,59.66916l15.09767,23.0738l0.5983,1.14996l1.01671,1.27088l3.03351,10.94233l-0.96182,2.86362l-0.96278,7.1989l-2.33675,2.62471l-0.5056,1.5053l-3.77639,3.30434l-3.33668,3.74784l-1.50959,0.49264l-2.64469,2.3141l-7.20691,0.90087l-2.87178,0.93718l-10.91584,-3.12746l-1.2621,-1.02759l-1.14478,-0.60816l-5.33035,-3.55357l-0.97287,-0.41607l-1.23777,-1.29617l-1.49253,-1.226l-1.66132,-2.07664l-1.83665,-1.92331l-1.01611,-1.64263l-1.1196,-1.3995l-0.28267,-1.01965l-3.77069,-7.72094l-0.80299,2.52368l-1.30174,4.66084l-0.30016,0.37374l-0.13204,0.41498l-0.25446,0.29465l-0.01116,0.1116l-2.73437,8.59375l-7.42187,8.59375l-14.45312,3.90625l-10.64337,-2.87658l-6.61358,9.831l-0.80719,0.97433l-0.03686,0.06826l-0.83603,0.98537l-0.82441,0.99511l-0.06077,0.0482l-0.81856,0.96479l-57,55l-3.08225,2.43127l-0.8114,0.40149l-0.69903,0.57524l-3.48179,1.81343l-9.71846,3.88739l-2.40996,1.44914l-2.9251,-0.15545l-7.71303,0.55982l-3.32713,-1.14651l-0.98534,-0.05237l-0.92035,-0.60433l-5.50269,-1.8962l-2.54742,-3.38972l-3.54442,-2.32737l-2.2413,-5.37137l-0.66147,-0.88018l-0.11474,-0.98003l-0.62932,-1.5082l-0.15049,0.27299l-1.17855,1.70982l-0.5547,0.86454l-0.13662,0.13843l-0.35808,0.51949l-2.41787,2.29309l-3.42239,3.46755l-0.41066,0.16767l-0.29259,0.27749l-4.15361,1.53793l-5.65564,2.30924l-0.37092,-0.07783l-0.46837,0.17342l-7.8198,-1.9125l-5.99352,-1.2576l-0.31603,-0.28553l-0.41372,-0.10118l-4.40591,-4.25343l-5.97327,-5.39694l-0.11948,-0.48494l-0.27267,-0.26323l-1.26468,-5.97658l-1.05957,-4.30058l0.06534,-0.39792l-0.09183,-0.43396l0.94773,-4.77895l0.53991,-3.28828l0.22881,-0.58799l0.03783,-0.19077l0.40394,-0.94444l0.75312,-1.93527l10.60703,-20.84059l-17.37678,23.64382l-25.54284,51.62342l-0.95936,1.53313l-0.36697,0.66451l-0.1768,0.20448l-0.57931,0.92577l-2.12946,2.20698l-3.01296,3.48456l-0.65927,0.32136l-0.4602,0.47695l-3.83578,1.61707l-5.25176,2.5599l-0.61389,-0.08709l-0.7618,0.32116l-7.64177,-1.51337l-5.8058,-0.82366l-0.55053,-0.43514l-0.68837,-0.13632l-4.39523,-3.88172l-6.11164,-4.8306l-0.25021,-0.78796l-0.46473,-0.41044l-1.46177,-5.65663l-1.25982,-3.96749l0.06409,-0.65966l-0.1835,-0.7101l0.69485,-4.55381l0.29653,-3.05245l0.32818,-1.04161l0.04077,-0.26722l0.26727,-0.71049l0.54348,-1.72496l18,-42l0.77848,-1.40968l0.05692,-0.16853l0.54493,-0.92131l0.51746,-0.93702l0.11634,-0.13456l0.81981,-1.38604l1.07159,-1.45807l-1.53791,0.41944l-1.2992,-0.18051l-0.0898,0.02427l-0.27978,-0.07562l-1.09389,-0.15198l-4.477,5.75614l-0.1862,0.44688l-0.66342,0.64549l-0.56591,0.7276l-2.70654,2.84358l-1.35217,0.92845l-1.17559,1.14382l-3.31916,2.09632l-0.82446,0.41222l-0.76307,0.52395l-0.47471,0.09494l-1.93777,0.96889l-3.66855,1.39754l-0.39223,0.06153l-3.6257,1.51071l-2.6221,-0.53066l-2.2693,0.35597l-11.00565,-2.79508l-1.92765,-2.16438l-75.62738,87.5317l-0.13387,0.45846l-0.92447,0.76647l-2.06627,2.3915l-2.8494,2.70043l-4.71133,2.88969l-0.97413,0.80765l-0.46958,0.07785l-1.53243,0.93991l-11.23444,1.65052l-0.73209,-0.35238l-0.80154,0.1329l-10.32051,-4.73539l-1.20728,-1.33201l-0.42889,-0.20644l-0.7085,-1.04845l-3.71168,-4.09516l-1.97758,-3.39124l-1.31253,-2.87507l-0.67238,-0.99501l0.0001,-0.4776l-0.4744,-1.03917l-0.97257,1.68508l-0.94729,1.0546l-0.73359,1.21301l-2.68252,2.86626l-1.15903,1.01415l-0.50397,0.56106l-0.29237,0.13574l-6.04463,5.28905l-0.10656,0.07594l-1.90293,2.2034l-3.13544,0.84742l-6.3201,2.75276l-3.95993,0.02563l-1.03765,0.28044l-0.98911,-0.26733l-5.3681,0.03475l-3.74772,-2.49848l-2.44599,-0.66107l-1.52979,0.6329l-2.22893,1.40756l-1.91546,0.30705l-3.34471,1.38378l-2.32026,-0.47565l-3.63146,0.58215l-5.09589,-2.37123l-3.61907,-0.7419l-1.94334,-1.73956l-1.84123,1.57167l-1.52926,0.47687l-1.17686,0.78457l-3.3133,0.61559l-4.8208,1.50326l-1.24864,-0.37561l-1.78125,0.33094l-6.43275,-2.80182l-4.87444,-1.46629l-1.03199,-1.10629l-1.38703,-0.60413l-3.00746,-4.10674l-4.7861,-5.13067l-0.28183,-1.78967l-0.77039,-1.05199l-0.18991,-5.04617l-0.52423,-3.32897l0.34735,-1.3711l-0.06025,-1.60076l1.36839,-3.56298l0.55917,-2.20728l1.73049,-3.52375l24.18768,-38.91061l-2.29698,-1.36646l-3.44725,-0.34176l-2.50069,-2.07778l-0.22092,-0.07003l-0.34709,-0.38326l-0.94684,-0.37853l-0.66338,-0.97803l-4.05476,-3.36903l-1.80216,-3.51984l-2.23564,-2.46866l-0.53139,-3.73217l-0.56827,-2.09551l-0.7825,-4.69497l-0.33542,-0.85124l0.04523,-1.56222l-0.02322,-0.35405l-0.70872,0.10125l-1.77137,0.07485l-1.76416,0.17642h-3l-3.90625,-0.39062l-8.59375,-2.73437l-0.42702,-0.36879l-1.52611,-0.41246l-3.07737,-3.56326l-3.56326,-3.07736l-0.41246,-1.5261l-0.36879,-0.42702l-2.73437,-8.59375l-0.29615,-2.96155l-0.18127,-0.61707l0.0868,-0.72862v-1.59902l0.39063,-3.90625l0.42399,-1.33253l0.16542,-1.38853l1.26081,-3.71776l0.66168,-1.45569l0.22248,-0.69923l0.2013,-0.23308l8.91454,-19.612l1.01239,-1.74263l0.94552,-1.7798l10.01557,-15.02336l19.79484,-63.15496l-0.43206,-0.6734l-0.62366,-3.71882l-1.392,-2.96993l0.58896,-3.74024l0.10087,-2.38733l1,-7l0.05939,-0.24107l-0.01595,-1.16446l0.75399,-1.83112l0.14169,-0.5751l0.64496,-1.33534l0.38829,-0.94299l-2.5181,-0.10561l-2.70555,0.73123l-3.69946,-0.99985l-3.82883,-0.16058l-2.35976,-1.51201l-4.56507,-1.2338l-3.27034,-3.78671l-2.41078,-1.54469l-1.06992,-2.48559l-0.67084,-0.77676l-0.95362,-2.99708l-1.79514,-4.17038l-0.00348,-1.60505l-0.37275,-3.72748v-9l0.09385,-0.93852l-0.02296,-0.94292l8,-106l0.1957,-1.10689l0.07355,-1.12165l6.33237,-37.99423l-21.10325,-0.89169l-0.96681,0.15166l-2.04237,-0.5187l-1.50176,-0.21454l-1.49815,-0.54734l-5.96337,-1.5145l-0.87687,-0.98456l-0.13227,-0.04832l-8.27277,-7.77805l-0.48623,-2.15681l-0.18935,-0.2126l-1.24106,-6.1323l-1.37597,-6.10344l0.08582,-0.27145l-0.43856,-2.167l4.36733,-10.48157l0.10092,-0.0982l0.39742,-1.25711l4.82211,-3.82135l1.14318,-1.11228l1.28261,-0.81008l1.65151,-1.30876l0.94427,-0.25709l1.44078,-0.72039l2.31275,-0.88105l2.31184,-0.88341l41.31553,-11.22705l0.36521,-1.14781l1.25723,-1.45574l0.73039,-1.51222l2.32291,-2.02318l3.11135,-3.60261l1.48616,-0.40167l1.64221,-1.43032l6.68371,-0.81993l4.64105,-1.25434l1.74321,0.47114l1.79232,-0.21987l4.41701,1.89807l6.07725,1.6425l4.80879,-1.30673l0.09745,-0.30686l0.81041,-3.24163l1.32637,-3.69488l1.00427,-1.62692l0.82917,-3.06793l2.28021,-1.96928l0.62336,-1.00985l2.95502,-2.08057l2.73515,-2.36218l1.13088,-0.35983l2.46352,-1.73452l3.17743,-0.06033l1.82193,-0.5797l3.90625,-0.39062h7l3.90625,0.39063l1.51023,0.48053l3.05587,0.00297l2.69801,1.82782l1.32964,0.42307l2.56609,2.21617l2.80709,1.90172l0.75419,1.17393l2.46639,2.13006l0.7973,2.95003l0.4146,0.64534l23.59348,-2.94918l1.05581,-0.02607l1.04586,-0.14701l16.14576,-0.64583l2.22109,-0.23517l1.31943,-0.00768l1.31291,-0.13129h5l1.98039,0.19804l0.93915,0.05613l0.21633,0.05942l0.77038,0.07704l3.09394,0.98443l4.61552,1.26782l0.42003,0.3344l0.46426,0.14772l3.28713,2.83889l4.7121,3.75146l0.13684,0.43625l0.45768,0.39527l0.20561,0.76075l1.3151,-1.27268l3.07869,-2.43578l0.37368,-0.18558l1.45952,-1.30361l3.61752,-1.21783l2.62632,-1.30432l1.50098,-0.08512l3.01677,-1.01559l2.5346,0.70077l4.28447,-0.24296l4.46116,2.66099l3.15007,0.87094l2.3531,2.41158l2.89372,1.72604l1.58132,2.86023l3.62771,3.71787l0.76257,4.22306l0.87595,1.58437l1.64449,-1.47557l1.61637,-0.93176l2.65918,-2.12734l1.98659,-0.55074l1.55094,-0.89404l2.9364,-0.34997l4.4684,-1.23876l0.59073,0.19841zM115.91265,415.20703l-8.40357,15.61376l22.47909,-26.01747l-5.14873,-2.67215z" fill="#35ff00" stroke-width="0.5"/><text transform="translate(106.625,133.5) scale(0.5,0.5)" font-size="40" xml:space="preserve" fill="#ffffff" fill-rule="nonzero" stroke="none" stroke-width="1" stroke-linecap="butt" stroke-linejoin="miter" stroke-miterlimit="10" stroke-dasharray="" stroke-dashoffset="0" font-family="Sans Serif" font-weight="normal" text-anchor="start" style="mix-blend-mode: normal"><tspan x="0" dy="0">enter  your password</tspan></text></g></g></svg>