<svg version="1.1" xmlns="http://www.w3.org/2000/svg" xmlns:xlink="http://www.w3.org/1999/xlink" width="710.23828" height="624.60431" viewBox="0,0,710.23828,624.60431"><g transform="translate(114.9828,134.36236)"><g data-paper-data="{&quot;isPaintingLayer&quot;:true}" fill-rule="nonzero" stroke="none" stroke-linecap="butt" stroke-linejoin="miter" stroke-miterlimit="10" stroke-dasharray="" stroke-dashoffset="0" style="mix-blend-mode: normal"><text transform="translate(184.60647,67.10381) rotate(0.33146) scale(0.50362,0.50002) skewX(0.06076)" font-size="40" xml:space="preserve" fill="#0052ff" fill-rule="nonzero" stroke="none" stroke-width="1" stroke-linecap="butt" stroke-linejoin="miter" stroke-miterlimit="10" stroke-dasharray="" stroke-dashoffset="0" font-family="Sans Serif" font-weight="normal" text-anchor="start" style="mix-blend-mode: normal"><tspan x="0" dy="0">wait  for  mins</tspan></text><path d="M-63.54942,75.94199l-1.46505,0.01074l-3.81741,-1.60039l-2.73614,-0.8432l-0.70901,-0.60113l-2.26695,-0.95038l-1.42747,-2.1819l-3.47813,-2.9489l-1.15943,-4.13965l-1.39391,-2.1306l-0.17945,-3.48695l-0.94168,-3.36218l0.64185,-2.46384l-0.22094,-4.29327l2.3564,-3.90395l0.65731,-2.52316l1.84563,-1.62357l0.48035,-0.79582l2.32451,-1.67157l3.10792,-2.73398l1.39201,-0.45693l3.10745,-1.36929l8.44366,-2.75492l-0.88392,-0.1375l-3.45781,-0.89762l-1.21476,-0.60544l-2.65069,-0.76334l-1.75372,-1.43184l-1.72574,-0.86012l-1.52084,-1.79058l-3.00382,-2.45249l-0.50331,-1.67666l-1.6613,-1.95595l-0.62205,-5.65057l-1.13043,-3.76582l0.49127,-2.04016l-0.22963,-2.08588l1.59707,-3.59286l1.33085,-5.52673l1.89506,-1.73043l0.71107,-1.59965l3.28955,-2.05341l1.73484,-1.58412l1.82056,-0.63523l1.92055,-1.19884l2.72588,-0.42239l1.28151,-0.44715l3.5435,-0.45365l106.77232,-2.95417l-0.89312,-3.30453l0.39451,-1.45968l-0.20135,-1.49859l1.72966,-4.15614l1.63187,-6.03793l1.3752,-1.18767l0.49803,-1.1967l3.72724,-2.45239l2.21985,-1.91714l1.34367,-0.42753l1.34139,-0.88259l3.28754,-0.59025l1.8477,-0.5879l3.55469,-0.35547h82l0.4433,0.04433l0.44469,-0.02699l12.83927,0.50153l1.21617,-0.3968l0.05339,-0.0117l0.05012,-0.0218l243,-78l1.72941,-0.37029l1.71157,-0.44555l64,-10l3.56695,-0.19755l0.13844,0.02136l1.52698,-0.20894l3.68319,1.01268l2.76209,0.42609l0.95694,0.59644l2.56112,0.70417l1.63737,1.91266l3.61377,2.25239l1.8275,4.10374l1.78148,2.081l0.59105,3.24661l1.34246,3.01456l-0.29791,2.72314l0.8046,4.41962l-1.71453,3.89782l-0.27381,2.50286l-1.71813,2.02565l-0.45402,1.03216l-2.0409,1.9093l-2.47087,2.91311l-1.37891,0.68842l-0.10229,0.09569l-3.05726,1.84807l-103,49l-0.11078,0.03973l-0.10134,0.05984l-11.53063,5.3405l32.8575,1.2835l0.97829,0.13658l0.98744,0.02578l87,11l1.39934,0.32092l1.77944,0.1302l3.8335,1.98285l3.91615,1.81418l1.19337,1.32636l1.11115,0.90912l2.8631,2.8631l6.85419,0.54522l1.34297,0.24306l0.40775,0.04078l0.24069,0.07658l1.52389,0.2758l2.3263,0.94926l3.72943,1.18664l0.73571,0.63539l0.80694,0.32928l2.4653,2.49675l3.81237,3.2925l0.21156,0.78275l0.77092,0.78075l1.25108,6.70065l1.32113,4.88818l-0.24157,0.89381l0.16993,0.91015l-1.70458,4.76803l-1.77847,6.58035l-0.8304,0.71716l-0.27296,0.76351l-1.55016,1.13733l-1.01098,3.74062l-0.95445,6.35443l-1.08052,1.17493l-0.30054,1.112l-3.5094,3.03084l-2.10415,2.28801l-1.13842,0.51239l-1.06834,0.92266l-3.34935,1.0657l-1.92744,0.86752l-2.53529,0.55244l-0.00823,0.00262l-0.007,0.0007l-0.93999,0.20482l-19.21454,2.21706l16.80102,5.60034l2.96252,1.32803l1.43635,0.47446l3.17105,2.80006l2.32208,1.69236l0.44877,0.75431l1.80373,1.5927l0.6579,2.54492l2.37284,3.98838l-0.24536,4.24126l0.62458,2.41604l-0.96154,3.40854l-0.20454,3.53566l-1.37948,2.07952l-1.15343,4.08877l-3.54543,2.99458l-1.45307,2.19045l-2.22503,0.91619l-0.67053,0.56635l-2.7475,0.84107l-3.91172,1.61071l-1.51254,-0.02072l-3.23381,0.28753l-14.1929,-0.15597l-1.71385,49.13032l4.8251,15.70877l34.54864,1.85082l2.46573,0.38071l1.65389,0.03942l4.44936,2.03052l2.6376,0.99754l0.40796,0.39234l1.90552,0.86961l1.42449,2.33287l3.70984,3.56776l0.8239,3.8571l1.14194,1.87015l0.07782,3.84019l0.80236,3.75624l-0.68405,2.08172l0.07991,3.9433l-2.79573,4.32155l-0.8533,2.59679l-1.65619,1.28229l-0.30744,0.47523l-2.33961,1.57423l-3.86717,2.99413l-1.60106,0.41656l-2.31335,0.93444l-23.36093,6.82454l1.73966,5.66371l0.53552,2.66445l0.07183,0.21754l0.03466,0.31232l0.06192,0.30807l-0.0023,0.22908l0.2998,2.70115l0.75254,69.23405l64.62803,24.76401l3.19216,1.60383l2.08988,1.66928l1.24862,0.58309l0.64286,0.92771l2.43088,1.94165l3.72606,6.94347l0.96011,1.38555l0.00474,0.41246l0.19504,0.36346l-0.17157,1.67694l0.09064,7.87954l-1.19088,2.8742l-0.11488,1.12281l-0.81174,1.1136l-1.02382,2.47101l-2.02063,2.94605l-53.75018,63.70391l-0.70854,1.58948l-8.77122,5.46244l-0.15027,0.02312l-0.12866,0.081l-10.20505,1.6216l-1.57679,-0.73634l-82.61727,-12.94005l-1.51511,-0.395l-0.1845,-0.0151l-0.87433,-0.26095l-0.88293,-0.23019l-0.1656,-0.08275l-1.50036,-0.44779l-9.57627,-3.93311l-13.57665,60.8435l-1.12109,3.39195l-0.31668,0.54347l-0.56376,1.95029l-1.98999,2.43238l-1.26127,2.16455l-1.29912,0.96503l-1.99265,2.43563l-2.15315,0.64399l-2.85001,2.11706l-4.96635,0.22075l-3.08341,0.92222l-2.74238,-0.66327l-2.81867,0.12529l-2.84945,-1.49618l-4.83193,-1.16865l-2.39134,-2.62412l-1.98977,-1.04479l-1.48882,-2.77243l-1.09005,-1.19616l-0.82296,-2.36618l-1.48683,-2.76873l-0.17945,-2.02219l-0.20663,-0.5941l-0.4501,-3.54395l-1.82949,-68.60578l-106.89521,1.38227l-0.02909,0.30671l-1.93624,3.55379l-0.2681,0.99451l-0.59316,0.58626l-2.1462,3.93915l-3.85979,1.99695l-3.09086,3.05489l-4.40927,0.82547l-0.74073,0.38323l-1.02871,-0.05197l-3.97792,0.74472l-5.4888,-1.22299l-3.11146,-0.1572l-2.27136,-1.70868l-0.38932,-0.17743l-25.36876,-14.77168l-93.20482,-6.57213l-0.99826,9.3171l-0.56366,2.69196l0.00122,0.00987l-0.00558,0.01094l-0.16412,0.78382l-0.19386,0.44027l-0.07455,0.47525l-1.27176,3.33838l-1,2l-0.70554,1.1171l-0.06153,0.13973l-0.06524,0.06098l-1.07534,1.70262l-1.08389,1.114l-0.48675,0.95474l-1.18092,0.75925l-2.97138,3.05392l-5.05379,2.10575l-2.25392,1.44912l-1.15972,-0.02677l-1.0708,0.44617l-2.62633,-0.53152l-5.47348,-0.12636l-3.87767,-1.76613l-1.37604,-0.27848l-0.80027,-0.71274l-1.41448,-0.64424l-2.87442,-2.12129l-19.08718,-17.26935l-0.15032,-0.07011l-0.31003,-0.34639l-1.45248,-1.31415l-2.39744,-2.64848l-0.56472,-0.96981l-0.74844,-0.83623l-1.78025,-3.09724l-0.80228,-1.7869l-0.23392,-0.40172l-0.02035,-0.16461l-2.51259,-5.59623l-0.11771,-0.02178l-3.13705,-0.1088l-1.65733,-0.77816l-0.18876,-0.03492l-3.30237,-1.36254l-3.7115,-1.98437l-0.49342,-0.23167l-0.0281,-0.04716l-96.76698,-51.7368l-2.96717,-1.98949l-1.79882,-1.84858l-2.64393,-1.64657l-0.88055,-1.97538l-0.39999,-0.41105l-1.37179,-3.56368l-1.55471,-3.48777l-0.00861,-0.57348l-0.77695,-2.01837l0.70105,-3.03481l-0.03874,-2.57905l0.68649,-3.50584l14.53285,-48.16661l0.93515,-2.25761l0.34092,-2.17195l3.27567,-3.515l1.45657,-2.1241l1.27943,-0.8118l1.03304,-1.10851l2.35554,-1.04155l4.05696,-2.57416l2.19761,0.0639l2.39099,-0.50447l19.93609,-2.16697l-2.72915,-51.85392l0.10494,-2.22711l0.09823,-2.22741l5.13615,-35.48615l-59.16096,-6.6473l-3.49277,-0.75015l-0.00378,-0.00169l-1.39533,-0.16688l-3.49542,-2.01686l-2.59905,-1.16049l-0.67311,-0.72756l-2.18248,-1.25929l-1.12953,-2.3206l-3.03216,-3.27741l-0.66035,-4.30879l-1.14061,-2.34337l0.25697,-3.42241l-0.51991,-3.39244l0.95666,-2.42429l0.32638,-4.34686l2.77061,-3.50131l0.94736,-2.40074l2.07896,-1.42372l0.61505,-0.77726l2.5019,-1.3573l3.32962,-2.2802l1.37832,-0.2739l0.00364,-0.00197l2.77131,-0.82304l0.00322,-0.02768l1.12266,-1.30492l0.29299,-1.19893l3.36104,-3.04831l1.96237,-2.28095l1.20347,-0.59032l1.12712,-1.02225l3.22874,-1.11437l1.80864,-0.88717l3.46343,-0.87568l18.86776,-2.81258zM503.57713,349.03034l-6.39468,0.9881l-6.24621,1.68915l-1.57409,-0.53981l-0.49399,0.99366l-3.22262,1.82365l-1.64554,1.42115l-1.97793,0.62934l-1.93935,1.09746l-0.1095,0.54105l-1.08649,1.21992l-1.1317,3.19179l-3.53252,2.60595l0.021,0.02302l0.90287,6.1746l1.22671,4.31645l-0.37928,1.47902l0.1662,1.13664l33.33478,5.22111l25.10244,-29.75104l-25.20234,-9.65697zM-34.58326,300.43517l0.01448,-0.31937l-0.52478,-3.42009l-0.87571,-16.63843l-2.44285,0.26553l-4.79836,15.90332l8.92093,4.76961z" fill="#ffad00" stroke-width="0.5"/><text transform="translate(174.625,59.5) scale(0.5,0.5)" font-size="40" xml:space="preserve" fill="#006aff" fill-rule="nonzero" stroke="none" stroke-width="1" stroke-linecap="butt" stroke-linejoin="miter" stroke-miterlimit="10" stroke-dasharray="" stroke-dashoffset="0" font-family="Sans Serif" font-weight="normal" text-anchor="start" style="mix-blend-mode: normal"><tspan x="0" dy="0">wait  for sec</tspan></text></g></g></svg>