<svg version="1.1" xmlns="http://www.w3.org/2000/svg" xmlns:xlink="http://www.w3.org/1999/xlink" width="55.00012" height="87.44901" viewBox="0,0,55.00012,87.44901"><g transform="translate(-203.12488,-130.91408)"><g data-paper-data="{&quot;isPaintingLayer&quot;:true}" fill-rule="nonzero" stroke-linecap="butt" stroke-linejoin="miter" stroke-miterlimit="10" stroke-dasharray="" stroke-dashoffset="0" style="mix-blend-mode: normal"><path d="" fill="#ffffff" stroke="#000000" stroke-width="2"/><path d="" fill="#ffffff" stroke="#000000" stroke-width="2"/><path d="M254.625,203c2.5,0 2.5,2.5 2.5,2.5l-0.12829,1.79057c-0.74824,2.11762 -1.99388,4.07462 -3.43835,5.7944c-0.97496,1.16078 -1.44689,2.85098 -2.75371,3.61921c-1.11612,0.65613 -2.59619,0.06981 -3.87419,0.27708c-4.68018,0.75906 -10.24656,2.09658 -15.02992,0.91146c-1.29391,-0.32058 -2.18229,-1.54947 -3.37392,-2.14694c-1.08569,-0.54436 -2.46799,-0.50376 -3.41911,-1.25902c-1.05971,-0.8415 -1.4528,-2.29586 -2.34206,-3.31581c-3.43591,-3.94088 -8.78737,-5.97035 -12.07381,-10.08598c-3.91695,-4.90524 -5.32637,-11.25238 -5.9992,-17.33947c-0.17346,-1.56932 -0.21438,-3.15809 -0.50925,-4.70919c-0.22978,-1.20877 -1.06997,-2.30595 -1.0582,-3.53631c0.01261,-1.31825 0.75219,-2.52705 1.12829,-3.79057c0.41503,-1.17459 0.61406,-2.44965 1.24508,-3.52376c0.47757,-0.81291 1.51184,-1.19341 2,-2c0.59741,-0.98711 0.46365,-2.34952 1.17985,-3.25413c1.63448,-2.06445 4.34247,-3.07206 6.05814,-5.06954c2.78117,-3.23801 5.08024,-6.80699 7.97052,-9.97568c2.21678,-2.43033 4.85845,-4.46142 6.98476,-6.97128c2.46115,-2.90509 4.19529,-8.1537 7.97665,-9.72473c1.21938,-0.50661 2.63677,-0.15419 3.95671,-0.1903c4.65951,-0.12746 9.33915,0 14,0c0,0 2.5,0 2.5,2.5c0,2.5 -2.5,2.5 -2.5,2.5c-3.66667,0 -7.33333,0 -11,0c-1.68229,0 -3.46336,-0.76817 -5.04329,-0.1903c-0.53358,0.19516 -0.72352,0.87655 -1.06807,1.32831c-1.72496,2.26166 -3.11713,4.7763 -4.95528,6.94697c-0.54794,0.64705 -6.46974,6.41698 -7.15737,7.17085c-2.85531,3.13037 -5.11057,6.70793 -7.88735,9.88218c-1.20445,1.37685 -2.48205,2.70316 -3.88983,3.87131c-0.59237,0.49154 -1.58828,0.44478 -2.05203,1.05915c-0.57551,0.76242 -0.33217,1.92467 -0.82015,2.74587c-0.89501,1.50617 -2.244,2.80037 -2.75492,4.47624c-1.24615,3.1585 0.27357,6.39651 0.66516,9.90277c0.5679,5.08498 1.59745,10.6081 4.89649,14.72169c2.4772,3.08883 6.49217,5.33637 9.50821,7.86534c0.80948,0.67875 1.72862,1.24821 2.41798,2.04868c0.68626,0.79687 0.83996,2.02322 1.65794,2.68419c0.69618,0.56254 1.77975,0.34186 2.58089,0.74098c0.95894,0.47773 1.58744,1.59033 2.62608,1.85306c4.08724,1.03388 8.98684,-0.61847 12.97008,-1.08854c0.70967,-0.08375 1.51952,0.65532 2.12581,0.27708c0.75999,-0.47412 0.71216,-1.66171 1.24629,-2.38079c0.97879,-1.3177 2.08298,-2.6355 2.56165,-4.2056l-0.12829,-0.20943c0,0 0,-2.5 2.5,-2.5z" fill="#0052ff" stroke="none" stroke-width="0.5"/></g></g></svg>