<svg version="1.1" xmlns="http://www.w3.org/2000/svg" xmlns:xlink="http://www.w3.org/1999/xlink" width="65.10584" height="79.09306" viewBox="0,0,65.10584,79.09306"><g transform="translate(-208.88254,-151.65694)"><g data-paper-data="{&quot;isPaintingLayer&quot;:true}" fill-rule="nonzero" stroke="none" stroke-linecap="butt" stroke-linejoin="miter" stroke-miterlimit="10" stroke-dasharray="" stroke-dashoffset="0" style="mix-blend-mode: normal"><path d="M209.79019,208.34306l-0.02942,-56.19835l60.44903,-0.48778l0.02942,56.19835z" fill="#006aff" stroke-width="0"/><path d="M229.625,165.5c0,6.07513 5.37258,11 12,11c6.62742,0 12,-4.92487 12,-11c0,-6.07513 -5.37258,-11 -12,-11c-6.62742,0 -12,4.92487 -12,11z" fill="#ffffff" stroke-width="0"/><path d="M240.125,188.5c15.88227,0 29.32856,6.31659 33.86338,15.02802c-1.78624,-0.0204 -3.57244,-0.02802 -5.36338,-0.02802c-2.66667,0 -5.3478,-0.27742 -8,0c-0.14623,0.0153 0.02901,0.4955 -0.10216,0.42908c-1.07221,-0.54296 -1.84058,-1.68348 -3,-2c-1.83753,-0.50164 -6.49256,-0.42908 -8.89784,-0.42908c-5,0 -10,0 -15,0c-4.11583,0 -8.72726,0.62779 -12.77817,0.07492c-1.36174,-0.18585 -2.63723,-0.82183 -4,-1c-2.81936,-0.3686 -4.6248,0.48004 -7.05955,-0.56176c0,0 -0.33684,-0.11228 -0.90474,-0.23106c6.00336,-6.71867 17.74296,-11.28211 31.24246,-11.28211z" fill="#ffffff" stroke-width="0"/><text transform="translate(219.625,224.5) scale(0.5,0.5)" font-size="40" xml:space="preserve" fill="#ffffff" fill-rule="nonzero" stroke="none" stroke-width="1" stroke-linecap="butt" stroke-linejoin="miter" stroke-miterlimit="10" stroke-dasharray="" stroke-dashoffset="0" font-family="Sans Serif" font-weight="normal" text-anchor="start" style="mix-blend-mode: normal"><tspan x="0" dy="0">chat</tspan></text></g></g></svg>