<svg version="1.1" xmlns="http://www.w3.org/2000/svg" xmlns:xlink="http://www.w3.org/1999/xlink" width="1076.81393" height="536.11475" viewBox="0,0,1076.81393,536.11475"><g transform="translate(281.79635,87.48897)"><g data-paper-data="{&quot;isPaintingLayer&quot;:true}" fill-rule="nonzero" stroke="none" stroke-linecap="butt" stroke-linejoin="miter" stroke-miterlimit="10" stroke-dasharray="" stroke-dashoffset="0" style="mix-blend-mode: normal"><path d="M769.42229,5.80912c7.48554,0.44979 14.06968,2.2531 19.12468,7.8138c0.67959,0.74758 1.88758,1.00121 2.3706,1.88857c8.48033,15.57953 3.91122,35.10264 -14.695,39.59367c-53.05617,12.80629 -106.18396,25.31416 -159.25759,38.04789c-0.10716,0.02571 -2.59121,8.82299 -3.08923,10.16515c-1.23005,3.31495 -5.68537,7.28058 -8.89907,9.31785c-30.06021,19.05617 -61.14919,36.56407 -90.27161,57.02472c-3.56698,2.50607 5.55373,8.1706 6.3018,9.39841c2.89146,4.74576 4.53448,10.12926 4.53485,15.63346c0.00033,4.93305 -0.71602,12.59321 -3.03839,17.22754c-0.41048,0.81913 -1.65207,1.05672 -1.97127,1.91554c-4.02099,10.81869 -8.70773,21.52649 -10.94949,32.84846c-0.54777,2.76653 4.33576,-1.04205 5.55807,-1.13665c3.18734,-0.24669 8.74615,0.18235 11.33819,0.61819c9.49023,1.59575 11.24626,7.79213 14.24853,14.63028c1.19617,2.72447 3.7067,5.28057 3.42613,8.24281c-0.38862,4.1029 -0.05117,8.69372 -2.29864,12.14823c-4.82639,7.41847 -9.86181,9.69387 -16.46473,15.67954c-0.22236,0.20157 0.53174,0.28747 0.81932,0.37334c0.7926,0.23669 1.65743,0.24805 2.41015,0.59105c2.81974,1.28488 7.40353,4.09051 9.07523,6.82474c3.95213,6.46407 5.71348,16.35785 4.23502,23.7887c-0.22139,1.11274 -1.37983,1.82499 -1.84715,2.85883c-2.84614,6.29648 -8.58185,11.05385 -15.43367,13.18974c-5.90704,1.84138 -13.7185,0.5777 -17.81446,5.21525c-2.21321,2.50585 6.21884,2.88957 8.48578,5.34692c1.81598,1.96851 2.11312,4.92263 3.23258,7.35566c1.11945,2.43303 3.21912,4.5752 3.48316,7.24036c0.4036,4.0738 -1.11229,8.1338 -2.17617,12.08689c-0.16552,0.61502 0.11601,1.35549 -0.2171,1.89833c-1.86479,3.03892 -5.31327,6.62103 -7.99767,8.92449c-13.42844,11.52284 -26.88404,23.01552 -40.17504,34.69662c-3.63517,3.19485 -8.87103,7.24727 -14.00747,7.96826c-16.33964,2.29355 -43.50193,-6.89182 -53.95012,-7.72575c-15.67595,-1.25119 -31.85857,-3.55442 -47.17742,0c-10.59185,2.45762 -18.53912,18.17566 -32.04701,20.81433c-8.11478,1.58516 -18.34186,-3.07001 -23.26648,-9.66627c-0.70238,-0.94081 -0.74392,-2.24806 -1.35189,-3.25247c-0.94045,-1.5537 -2.49413,-2.71894 -3.25952,-4.36594c-0.41417,-0.89124 0.83698,-3.06847 -0.13803,-2.9451c-40.10437,5.07432 -79.92056,12.21433 -119.90884,18.13436c-6.17167,0.91368 -19.02426,-1.69759 -22.4337,-7.27406c-2.03263,-3.32456 -3.69802,-6.86759 -5.29763,-10.42083c-0.21462,-0.47673 0.47091,-1.70858 -0.03267,-1.5681c-23.0556,6.43177 -52.13896,21.75407 -79.33228,21.35886c-2.70627,-0.03933 -10.19935,-2.97479 -11.65204,-4.87689c-0.80357,-1.05217 -1.06472,-2.5468 -2.10128,-3.3704c-0.58373,-0.46381 -1.54152,0.19735 -2.23542,-0.07535c-4.59877,-1.80728 -9.25955,-4.73162 -12.11366,-8.79834c-1.98961,-2.83492 -5.51979,-10.2176 -6.03231,-13.70266c-0.17787,-1.20952 1.87792,-3.64008 0.6558,-3.60848c-8.16122,0.21106 -15.91676,4.86917 -24.07284,4.51093c-3.70414,-0.1627 -7.80843,0.47438 -11.04219,-1.33942c-0.23699,-0.13293 -6.30928,-5.20353 -7.27954,-4.8696c-13.1128,4.51303 -20.16087,13.6696 -33.58111,11.82161c-1.9682,-0.27103 -6.34918,-0.45875 -8.22083,-1.94432c-2.87179,-2.27941 -6.87711,-6.47886 -8.79925,-9.55824c-1.13436,-1.81732 -1.68745,-3.94556 -2.33583,-5.98737c-0.6623,-2.08567 -1.91667,-3.97859 -2.386,-6.11597c-0.51249,-2.33395 1.24317,-6.35215 1.86421,-8.23936c5.7794,-17.56259 26.78665,-19.49172 37.92796,-34.24614c3.53751,-4.68472 -2.73021,-11.4737 -3.13159,-17.33028c-0.82678,-12.06353 -1.79112,-26.68837 1.28448,-38.99075c1.77573,-7.1029 3.42158,-12.73723 10.15625,-17.1875c2.72152,-1.79838 6.54781,-1.05834 9.44712,-2.55328c0.62348,-0.32148 -0.57568,-1.3266 -0.56221,-2.02796c0.01408,-0.73283 0.58006,-1.37505 0.63174,-2.1062c0.65984,-9.33382 1.27617,-18.67093 2,-28c0.44455,-5.7296 2.90735,-11.73112 3.52673,-17.1193c0.02378,-0.20689 -1.61368,-5.96589 -1.77225,-6.75671c-0.87223,-4.35002 -0.78972,-8.48799 -0.14866,-12.88385c0.38788,-2.65975 3.79955,-7.35985 1.18332,-7.97634c-24.74527,-5.83098 -50.94344,-15.59943 -75.65759,-9.63791c-60.04524,14.48404 -114.5455,46.26239 -171.84024,69.33904c-5.34537,2.15296 -10.76739,2.09593 -16.11871,0.63382c-0.82748,-0.22609 -6.07064,-1.11094 -7.38916,-2.52132c-1.63667,-1.75069 -2.80839,-3.88855 -4.33676,-5.73454c-1.08072,-1.30531 -4.18723,-3.98076 -4.69397,-6.20688c-0.92014,-4.04217 -1.72916,-8.12035 -2.22364,-12.23633c-0.23029,-1.91693 2.46831,-6.49855 2.82806,-7.27728c2.32645,-5.03585 5.77366,-9.22191 10.86258,-11.92556c60.34913,-32.06244 121.27783,-63.05281 181.10258,-96.08336c1.22481,-0.67624 0.41928,-2.77225 0.47608,-4.17019c0.10669,-2.62614 -0.62815,-7.1946 1.1181,-9.79397c1.57161,-2.33942 3.39558,-4.50148 5.19333,-6.67194c0.01728,-0.02086 2.73083,-1.4579 1.36988,-2.11629c-16.71386,-8.08576 -25.2452,-6.35565 -34.27099,-20.26184c-2.64084,-4.06879 -4.04243,-8.36596 -3.40706,-13.55151c1.21496,-9.91585 7.58376,-18.57162 15.8675,-23.80126c1.56892,-0.99048 6.31582,-2.15223 7.48451,-2.61866c1.9776,-0.78926 0.59544,-4.21673 0.89851,-6.32433c0.38577,-2.68272 0.63961,-5.38418 1.06543,-8.06083c0.29731,-1.86885 5.9264,-6.77095 7.53746,-8.49255c2.17693,-2.3263 8.40008,-4.24352 11.97734,-4.74963c8.16059,-1.15457 16.67615,-0.70276 24.50869,-3.26783c1.47604,-0.48339 -0.45519,-3.09821 -0.34003,-4.64711c0.27477,-3.69559 3.06523,-6.766 4.97184,-9.94369c5.03147,-8.38579 12.63912,-13.59651 20.89157,-17.86502c13.35506,-6.90779 30.33579,-2.92522 44.2987,-8.50306c6.72001,-2.68447 10.38817,-10.0779 15.66381,-15.03093c3.1545,-2.9616 7.07041,-5.03175 11.18285,-6.39996c1.50828,-0.5018 3.15322,-0.42761 4.7399,-0.52322c17.99512,-1.08436 35.99367,-2.12127 54,-3c0.95021,-0.04637 7.27216,0.08152 8.42776,0.37974c3.08519,0.79618 7.3085,3.91652 9.75859,5.80574c1.23961,0.95584 2.51952,1.92374 3.45996,3.17508c0.5515,0.73382 -0.05008,2.54028 0.86487,2.61454c30.89322,2.50748 61.89856,3.35943 92.85036,4.99195c1.86126,0.09817 5.85761,-1.05303 7.86508,-0.99144c39.6704,1.21708 79.33566,2.59923 119,4c4.00554,0.14146 7.96871,1.79822 11.66014,3.11089c0.53035,0.18859 1.51001,1.38232 1.80214,1.42503c2.98594,0.43656 6.03292,0.2333 9.04,0.48602c1.92979,0.16218 3.79957,0.76656 5.66783,1.27646c1.10995,0.30293 2.27029,0.40411 3.37314,0.73196c0.25665,0.0763 0.581,0.72282 0.65469,0.4654c1.76407,-6.16241 0.87115,-9.1845 4.71446,-14.78848c0.85231,-1.24276 3.11255,-5.40549 5.07625,-6.30453c13.36248,-6.11775 38.45171,-10.22965 50.62191,-1.81748c5.89936,4.0777 14.40614,10.03548 20.25825,14.18072c1.27435,0.90267 2.51798,1.84915 3.74175,2.81928c0.86855,0.68853 2.33632,3.27727 2.50862,2.18239c2.32013,-14.74341 -2.40938,-34.79887 9.22791,-46.93268c1.57485,-1.64204 2.57587,-4.35587 4.79506,-4.85753c4.67179,-1.05609 9.36208,-2.03056 14.05874,-2.96989c1.30161,-0.26032 13.82873,4.35041 14.27798,4.50456c2.15203,0.7384 2.8541,3.54446 4.2424,5.34698c3.59165,4.66328 5.6422,10.13491 5.41719,16.16755c-0.59042,15.82934 -1.57242,31.6447 -1.97833,47.47984c-0.25367,9.89638 0,19.79926 0,29.69889z" fill="#ffffff" stroke-width="0.5"/><text transform="translate(258.28198,52.64564) rotate(0.47889) scale(0.55285,0.55285)" font-size="40" xml:space="preserve" fill="#000000" fill-rule="nonzero" stroke="none" stroke-width="1" stroke-linecap="butt" stroke-linejoin="miter" stroke-miterlimit="10" stroke-dasharray="" stroke-dashoffset="0" font-family="Sans Serif" font-weight="normal" text-anchor="start" style="mix-blend-mode: normal"><tspan x="0" dy="0">dance sitar</tspan></text><text transform="translate(300.625,116.5) scale(0.5,0.5)" font-size="40" xml:space="preserve" fill="#000000" fill-rule="nonzero" stroke="none" stroke-width="1" stroke-linecap="butt" stroke-linejoin="miter" stroke-miterlimit="10" stroke-dasharray="" stroke-dashoffset="0" font-family="Sans Serif" font-weight="normal" text-anchor="start" style="mix-blend-mode: normal"><tspan x="0" dy="0">cave</tspan></text><text transform="translate(252.625,170.5) scale(0.5,0.5)" font-size="40" xml:space="preserve" fill="#000000" fill-rule="nonzero" stroke="none" stroke-width="1" stroke-linecap="butt" stroke-linejoin="miter" stroke-miterlimit="10" stroke-dasharray="" stroke-dashoffset="0" font-family="Sans Serif" font-weight="normal" text-anchor="start" style="mix-blend-mode: normal"><tspan x="0" dy="0">dance energelie</tspan></text><text transform="translate(244.765,54.15313) scale(0.75,0.75)" font-size="40" xml:space="preserve" fill="#000000" fill-rule="nonzero" stroke="none" stroke-width="1" stroke-linecap="butt" stroke-linejoin="miter" stroke-miterlimit="10" stroke-dasharray="" stroke-dashoffset="0" font-family="Sans Serif" font-weight="normal" text-anchor="start" style="mix-blend-mode: normal"><tspan x="0" dy="0">1</tspan></text><text transform="translate(288.625,112.5) scale(0.5,0.5)" font-size="40" xml:space="preserve" fill="#000000" fill-rule="nonzero" stroke="none" stroke-width="1" stroke-linecap="butt" stroke-linejoin="miter" stroke-miterlimit="10" stroke-dasharray="" stroke-dashoffset="0" font-family="Sans Serif" font-weight="normal" text-anchor="start" style="mix-blend-mode: normal"><tspan x="0" dy="0">2</tspan></text><text transform="translate(236.625,166.5) scale(0.5,0.5)" font-size="40" xml:space="preserve" fill="#000000" fill-rule="nonzero" stroke="none" stroke-width="1" stroke-linecap="butt" stroke-linejoin="miter" stroke-miterlimit="10" stroke-dasharray="" stroke-dashoffset="0" font-family="Sans Serif" font-weight="normal" text-anchor="start" style="mix-blend-mode: normal"><tspan x="0" dy="0">3</tspan></text><text transform="translate(260.625,260.5) scale(0.5,0.5)" font-size="40" xml:space="preserve" fill="#000000" fill-rule="nonzero" stroke="none" stroke-width="1" stroke-linecap="butt" stroke-linejoin="miter" stroke-miterlimit="10" stroke-dasharray="" stroke-dashoffset="0" font-family="Sans Serif" font-weight="normal" text-anchor="start" style="mix-blend-mode: normal"><tspan x="0" dy="0">4dance space</tspan></text><text transform="translate(233.625,330.5) scale(0.5,0.5)" font-size="40" xml:space="preserve" fill="#000000" fill-rule="nonzero" stroke="none" stroke-width="1" stroke-linecap="butt" stroke-linejoin="miter" stroke-miterlimit="10" stroke-dasharray="" stroke-dashoffset="0" font-family="Sans Serif" font-weight="normal" text-anchor="start" style="mix-blend-mode: normal"><tspan x="0" dy="0">emotional piano</tspan></text><text transform="translate(213.625,325.5) scale(0.5,0.5)" font-size="40" xml:space="preserve" fill="#000000" fill-rule="nonzero" stroke="none" stroke-width="1" stroke-linecap="butt" stroke-linejoin="miter" stroke-miterlimit="10" stroke-dasharray="" stroke-dashoffset="0" font-family="Sans Serif" font-weight="normal" text-anchor="start" style="mix-blend-mode: normal"><tspan x="0" dy="0">5</tspan></text></g></g></svg>