<svg version="1.1" xmlns="http://www.w3.org/2000/svg" xmlns:xlink="http://www.w3.org/1999/xlink" width="107.279" height="147.33951" viewBox="0,0,107.279,147.33951"><g transform="translate(-203.84752,-146.87561)"><g data-paper-data="{&quot;isPaintingLayer&quot;:true}" fill="#0052ff" fill-rule="nonzero" stroke="none" stroke-width="0.5" stroke-linecap="butt" stroke-linejoin="miter" stroke-miterlimit="10" stroke-dasharray="" stroke-dashoffset="0" style="mix-blend-mode: normal"><path d="M207.625,230c2.5,0 2.5,2.5 2.5,2.5l-0.07464,1.39366c0.65742,2.67775 0.66898,5.47401 1.04236,8.20588c0.46026,3.36751 2.97665,5.66652 3.92501,8.676c1.35723,4.30696 -0.75695,9.26718 -2.27344,13.05059c-5.2272,5.75057 -3.58831,13.38022 -3.61929,20.67387c-0.00007,0.01542 -0.21387,3.75059 0.26777,4.23223c0.39127,0.39127 1.07986,0.2763 1.63269,0.30005c3.19692,0.13736 6.39968,-0.03228 9.59954,-0.03228c2.93588,0 6.67476,0.50991 9.59954,0.03228c1.35171,-0.22074 5.72191,-2.30183 6.41456,-2.58159c4.34194,-1.75367 9.57979,-2.81684 13.67157,-5.07732c2.25426,-1.24536 3.74217,-3.5394 5.6294,-5.29182c4.88529,-4.53634 9.77058,-9.07268 14.65587,-13.60902c2.33371,-2.16701 5.0586,-3.96915 7.02836,-6.47159c4.6457,-5.90204 5.2498,-14.46992 8.90447,-20.86322c0.52046,-0.91046 1.52829,-1.44494 2.19168,-2.25718c3.05514,-3.7407 5.47759,-7.96383 8.61177,-11.65866c0.87134,-1.02721 5.39714,-5.53915 6.07431,-7.04587c0.60593,-1.34821 0.52597,-2.90912 0.80586,-4.36049c0.87542,-4.5394 1.92762,-8.68532 1.91261,-13.31552c0,-3.16785 0.51015,-6.36919 0.04982,-9.50341c-0.36618,-2.4932 -2.43251,-4.10414 -4.18782,-5.60795c-4.63237,-3.96866 -10.509,-5.89365 -14.97327,-10.18412c-1.24584,-1.19734 -2.11241,-2.73794 -3.25154,-4.03722c-2.88749,-3.29344 -6.27698,-6.26385 -9.36941,-9.364c-0.945,-0.94736 -3.84631,-4.27041 -5.63951,-4.96021c-4.02107,-1.54681 -9.85506,-0.84309 -14.12826,-0.84309c0,0 -2.5,0 -2.5,-2.5c0,-2.5 2.5,-2.5 2.5,-2.5c4.88874,0 11.2716,-0.68426 15.87174,1.15691c3.00828,1.20404 5.24156,3.92605 7.43156,6.11086c4.29441,4.28423 8.23274,9.15886 12.55493,13.3364c6.36463,6.15163 18.6827,8.44223 20.59196,18.39924c0.06492,0.33857 0.04982,9.87211 0.04982,10.49659c-0.01419,4.95393 -1.00947,9.44998 -2.00971,14.2961c-0.37507,1.8172 -0.38431,3.75757 -1.1553,5.44532c-1.20944,2.64757 -4.94021,6.00925 -6.81635,8.21667c-3.13692,3.69081 -5.5477,7.92835 -8.61409,11.66138c-0.53137,0.64689 -1.39584,1.01434 -1.80832,1.74282c-3.71392,6.55901 -4.33369,15.03233 -9.09553,21.13678c-0.20232,0.25937 -7.19985,6.74032 -7.62751,7.13743c-4.88529,4.53634 -9.77058,9.07268 -14.65587,13.60902c-2.12364,1.97195 -3.88115,4.45327 -6.403,5.88111c-0.34404,0.19479 -9.17731,3.49206 -9.79981,3.72543c-3.8322,1.43667 -8.04746,3.92777 -12.11406,4.61566c-3.17548,0.53715 -7.19742,0.03228 -10.40046,0.03228c-0.47779,0 -10.16225,0.00996 -10.40046,-0.03228c-8.35593,-1.48185 -6.09954,-11.19831 -6.09954,-17.46772c0,-0.9854 -0.01008,-7.22689 0.04511,-7.47277c1.08418,-4.82987 1.67464,-4.92597 4.3356,-7.85336c0.88272,-2.21328 2.66915,-6.33249 1.72656,-8.94941c-0.36306,-1.00796 -1.37238,-1.66861 -1.85306,-2.62608c-0.11254,-0.22417 -2.19114,-6.49021 -2.22193,-6.69792c-0.38382,-2.58928 -0.31033,-5.25784 -0.95764,-7.79412l-0.07464,-2.60634c0,0 0,-2.5 2.5,-2.5z"/></g></g></svg>