<svg version="1.1" xmlns="http://www.w3.org/2000/svg" xmlns:xlink="http://www.w3.org/1999/xlink" width="101.99604" height="78.41733" viewBox="0,0,101.99604,78.41733"><g transform="translate(-142.12896,-111.58583)"><g data-paper-data="{&quot;isPaintingLayer&quot;:true}" fill="#0052ff" fill-rule="nonzero" stroke="none" stroke-width="0.5" stroke-linecap="butt" stroke-linejoin="miter" stroke-miterlimit="10" stroke-dasharray="" stroke-dashoffset="0" style="mix-blend-mode: normal"><path d="M241.625,120c-2.5,0 -2.5,-2.5 -2.5,-2.5l1.70943,0.37171c-13.18846,-4.5681 -26.43057,2.9992 -38.25272,7.93799c-6.6797,2.79049 -13.49576,5.21609 -20.15859,8.05948c-6.01578,1.51877 -11.8181,3.226 -17.21656,6.32073c-2.29637,1.31643 -4.91973,2.22885 -6.8138,4.07785c-2.06129,2.01226 -1.26833,2.8051 -2.51641,5.31915c-0.52528,1.0581 -1.54238,1.84866 -1.95623,2.9551c-0.56041,1.49825 -0.45285,3.17905 -0.9114,4.71155c-0.82758,2.76578 -2.43457,5.26681 -3.18032,8.05577c-1.93991,7.25495 -2.13844,14.94216 -2.71077,22.38241c0,0 -0.19174,2.49264 -2.68438,2.30089c-2.49264,-0.19174 -2.30089,-2.68438 -2.30089,-2.68438c0.59632,-7.75219 0.83241,-15.73973 2.86694,-23.29499c0.76965,-2.85812 2.39229,-5.43148 3.24197,-8.26683c1.43855,-4.80039 2.87683,-11.21407 6.61596,-15.0142c1.20992,-1.22966 6.67419,-4.20301 7.86864,-4.88354c5.68685,-3.24003 11.76068,-5.15044 18.10101,-6.71788c6.55137,-2.82064 13.26504,-5.19251 19.84141,-7.94052c13.26217,-5.54174 27.01634,-12.82446 41.74728,-8.06201l1.70943,4.37171c0,0 0,2.5 -2.5,2.5z"/></g></g></svg>