<svg version="1.1" xmlns="http://www.w3.org/2000/svg" xmlns:xlink="http://www.w3.org/1999/xlink" width="827.11448" height="546.083" viewBox="0,0,827.11448,546.083"><g transform="translate(210.35931,82.8854)"><g data-paper-data="{&quot;isPaintingLayer&quot;:true}" fill-rule="nonzero" stroke="none" stroke-linecap="butt" stroke-linejoin="miter" stroke-miterlimit="10" stroke-dasharray="" stroke-dashoffset="0" style="mix-blend-mode: normal"><path d="M452.97038,415.76406c1.98348,6.23381 0.99357,18.27357 -3.25163,23.18906c-2.04611,2.36917 -4.27145,4.59452 -6.64062,6.64063c-0.04394,0.03795 -1.7244,0.22136 -1.95635,0.78227c-0.92224,2.2303 -1.49448,5.6885 -3.11491,7.56478c-5.92989,6.86618 -14.19327,9.39623 -22.8979,8.87918c-1.50819,-0.08959 -3.06646,0.65597 -4.52498,0.26178c-1.71232,-0.46279 -2.9682,-1.96547 -4.57313,-2.72073c-0.88698,-0.4174 -1.99652,-0.26608 -2.83898,-0.76729c-2.62359,-1.56087 -3.54973,-5.31288 -6.05038,-7.0057c-14.21326,-9.62172 -39.29843,-35.38728 -63.3232,-34.66925c-60.89742,1.82005 -119.96586,14.54288 -179.47739,5.36189c-8.11463,-1.25186 -15.40219,-6.03704 -19.5148,-13.24219c-1.3551,-2.37409 -2.27089,-11.47838 -2.18111,-14.53851c0.03431,-1.16931 -0.50739,-2.3375 -0.33046,-3.49386c0.18436,-1.20492 2.3375,-3.40195 1.12111,-3.48073c-4.32581,-0.28016 -8.70874,0.205 -12.96874,-0.80082c-2.92036,-0.68952 -5.73319,-1.96704 -8.72277,-2.2246c-5.79398,-0.49916 -11.63143,0.07739 -17.44633,-0.00241c-34.96066,-0.47979 -69.94883,-2.92968 -104.88173,-1.45669c-2.82068,0.11894 -1.12937,6.11986 -2.67733,7.91223c-5.83194,6.75278 -11.79416,9.89828 -21.09375,10.54688c-1.19022,0.08301 -2.38054,0.80183 -3.54081,0.52381c-10.40217,-2.49248 -12.06378,-3.43327 -19.55294,-11.07069c-0.46653,-0.47576 -5.07917,-10.62251 -5.13507,-10.63447c-11.15137,-2.38567 -49.46129,-3.30035 -61.86493,-19.36553c-5.6113,-7.26775 -3.83457,-21.04003 0,-28.90625c0.42045,-0.86251 1.74083,-1.02765 2.17859,-1.88151c0.81887,-1.59722 -2.6513,-2.54491 -3.3981,-4.17707c-0.74164,-1.6209 -0.44238,-3.55078 -0.92312,-5.26724c-0.30757,-1.09817 -1.2266,-1.98778 -1.42347,-3.11109c-0.75138,-4.28732 0.30896,-10.78543 1.47702,-14.89866c0.21292,-0.74978 1.55418,-1.02136 1.49433,-1.79848c-0.18024,-2.34021 -3.74725,-2.85879 -5.37017,-4.55443c-2.74454,-2.86753 -5.65545,-14.05809 -4.82872,-18.22863c0.71221,-3.59281 1.57027,-7.18096 2.85683,-10.61028c2.27927,-6.07537 14.00056,-11.48234 20.32514,-11.96125c16.46783,-1.24698 33.04424,-1.31399 49.4295,-3.37979c0.99073,-0.12491 0.47782,-1.94234 0.62162,-2.9305c0.77485,-5.32433 7.09423,-13.91688 2.13329,-15.99966c-15.99416,-6.71491 -34.5534,-3.11774 -51.8125,-4.85742c-5.08751,-0.51281 -11.89569,-2.81455 -15.45232,-6.5196c-0.64602,-0.67298 -0.68672,-1.76152 -1.25455,-2.50166c-0.96989,-1.26421 -2.59605,-2.02414 -3.31033,-3.44847c-1.5585,-3.10775 -1.73542,-7.79694 -1.91386,-11.11689c-0.17845,-3.31995 -0.50519,-8.00109 0.71121,-11.25799c2.57118,-6.88431 11.4099,-13.04293 18.56524,-14.54355c20.50599,-4.30053 42.44741,-4.02913 61.5924,-12.54144c4.3306,-1.92549 0.53139,-9.90038 -1.61442,-14.12615c-1.00727,-1.98362 -4.39985,-0.86099 -6.44297,-1.74134c-1.10979,-0.4782 -2.04799,-1.34141 -2.83785,-2.25598c-4.76558,-5.51804 -7.22937,-11.58529 -7.70903,-18.83777c-0.52759,-7.97721 5.34396,-27.64504 2.58334,-28.02871c-31.33001,-4.35421 -62.87156,7.02184 -94.29202,10.66652c-0.81136,0.09412 -1.25988,1.10024 -2.03,1.37243c-4.19576,1.48293 -8.30987,2.18705 -12.74891,1.86569c-4.78326,-0.34627 -12.52551,-0.59698 -17.47432,-2.7345c-3.89816,-1.68371 -10.94146,-7.00585 -12.46529,-10.85894c-0.7205,-1.82181 -0.4774,-3.89977 -0.96128,-5.79818c-0.74709,-2.93111 -1.96635,-5.83129 -1.48745,-8.9719c0.19853,-1.30198 1.09658,-2.41239 1.40529,-3.69272c0.4592,-1.90453 0.18917,-3.97916 0.88597,-5.81016c0.39372,-1.0346 1.63368,-1.52217 2.25344,-2.43939c5.82791,-8.62508 14.45804,-9.6925 24.34605,-11.18374c0.82732,-0.12477 1.36306,-0.97782 2.09725,-1.37905c11.17196,-6.10538 23.42609,-10.5078 33.59968,-18.16199c9.668,-7.27381 16.85879,-17.35814 25.22659,-26.09647c3.29222,-3.438 6.27488,-8.31467 10.65592,-10.52329c8.05867,-4.06262 17.55897,-3.99234 25.80893,-0.58626c5.37691,2.21991 10.45521,5.10677 15.75027,7.51539c0.47549,0.21629 1.33994,1.29772 1.36161,0.7758c0.79731,-19.20333 -4.41345,-43.478 11.77566,-57.84645c2.6102,-2.31666 6.5275,-2.14357 9.81225,-2.78079c7.46939,-1.44901 11.46807,-0.76371 19.09185,2.4283c1.58255,0.6626 2.79677,3.23294 4.10409,4.07897c0.2176,0.14082 4.01237,-1.27443 4.79483,-1.41992c3.94551,-0.73365 9.38066,-0.28985 12.92572,-0.39062c1.63246,-0.04641 1.76509,-6.827 4.1309,-8.30928c6.73982,-4.22279 10.01213,-5.75027 17.73084,-6.6079c5.35005,-0.59445 13.28024,1.6004 17.22877,2.25734c18.00085,2.99488 36.0099,5.94119 54,9c8.7438,1.48668 24.40305,7.71016 27.67375,8.69457c2.7835,0.83777 5.48208,-1.97141 8.31002,-2.6441c1.73578,-0.41289 5.3984,-0.72108 7.40011,-0.72108c10.61008,0 42.73628,2.19453 47.79932,-3.49421c2.12266,-2.38497 7.5799,-5.14545 11.0622,-5.72944c7.26253,-1.21794 14.1758,1.40324 21.42132,1.5541c23.91076,0.49785 47.83245,0.16557 71.74782,0c2.44094,-0.0169 4.98078,-0.98367 7.47549,-1c11.66642,-0.07636 23.33339,-0.03645 35,0c4.02627,0.01258 8.2079,0.97198 12.13403,1c38.62101,0.27562 77.24404,-0.06589 115.86597,0c6.87474,0.01173 16.90676,4.60095 21.76211,3.22199c2.56739,-0.72916 0.1374,-5.33632 0.25009,-8.00286c0.14951,-3.5377 0.72991,-8.02119 1.14071,-10.97992c2.21423,-15.94791 14.8787,-23.7988 30.11029,-21.10239c1.51482,0.26817 3.17527,-0.28829 4.60696,0.27463c1.6088,0.63256 2.64562,2.24589 4.11589,3.15509c21.24975,13.14063 8.76339,56.84547 22.04549,71.08019c12.43227,13.32394 48.57869,6.88607 65.89184,21.64681c3.16592,2.69918 5.55331,7.88399 7.85908,10.94139c9.41784,12.48787 2.1465,33.50248 -8.60015,42.87135c-9.58305,8.35445 -22.37148,14.01616 -28.83597,24.96339c-6.50346,11.01323 -7.81357,24.67252 -8.34633,37.4515c-2.25969,54.20097 -0.15806,108.49633 0,162.74415c0.0198,6.7949 1.47459,13.40606 0.79629,20.18906c-0.53811,5.38105 -2.37427,9.14118 -5.60835,13.15694c-1.51455,1.88062 -2.4448,4.71661 -4.73481,5.48241c-2.44673,0.81821 -4.9905,1.31243 -7.47168,2.01937c-0.74774,0.21305 -2.19488,-0.03756 -2.21208,0.73974c-0.05373,2.42914 3.71463,3.15603 5.33693,4.96483c2.11884,2.36243 4.27822,7.10508 4.97528,10.20702c0.40698,1.81108 1.56819,6.04369 1.07418,8.37283c-0.78532,3.70265 -1.65684,7.39584 -2.79508,11.00565c-0.18949,0.60095 -1.18715,0.89317 -1.12373,1.52009c1.19822,11.84463 -0.26431,19.94907 -9.78383,28.17047c-3.63535,3.13962 -10.46763,3.4456 -15.2365,3.90625c-26.14483,2.52549 -52.28481,5.10096 -78.42722,7.65144z" fill="#ff0000" stroke-width="0.5"/><text transform="translate(146.625,80.5) scale(0.5,0.5)" font-size="40" xml:space="preserve" fill="#ffffff" fill-rule="nonzero" stroke="none" stroke-width="1" stroke-linecap="butt" stroke-linejoin="miter" stroke-miterlimit="10" stroke-dasharray="" stroke-dashoffset="0" font-family="Sans Serif" font-weight="normal" text-anchor="start" style="mix-blend-mode: normal"><tspan x="0" dy="0">incorrect  password</tspan></text><text transform="translate(168.625,175.5) scale(0.5,0.5)" font-size="40" xml:space="preserve" fill="#ffffff" fill-rule="nonzero" stroke="none" stroke-width="1" stroke-linecap="butt" stroke-linejoin="miter" stroke-miterlimit="10" stroke-dasharray="" stroke-dashoffset="0" font-family="Sans Serif" font-weight="normal" text-anchor="start" style="mix-blend-mode: normal"><tspan x="0" dy="0">click  on flag</tspan></text></g></g></svg>