<svg version="1.1" xmlns="http://www.w3.org/2000/svg" xmlns:xlink="http://www.w3.org/1999/xlink" width="70.5" height="90.25" viewBox="0,0,70.5,90.25"><g transform="translate(-203.625,-151.5)"><g data-paper-data="{&quot;isPaintingLayer&quot;:true}" fill-rule="nonzero" stroke-linecap="butt" stroke-linejoin="miter" stroke-miterlimit="10" stroke-dasharray="" stroke-dashoffset="0" style="mix-blend-mode: normal"><path d="M204.625,214.5v-62h68v62z" fill="#ffffff" stroke="#000000" stroke-width="2"/><path d="M274.125,181.5c0,2.5 -2.5,2.5 -2.5,2.5l-1.20943,-0.12829c-3.49511,1.06554 -4.48617,3.43781 -7.25623,5.60207c-0.753,0.58832 -1.73047,0.85259 -2.46447,1.46447c-2.28291,1.90311 -4.21119,5.08963 -7.34541,5.95448c-1.7109,0.4721 -3.56017,-0.12236 -5.324,0.07499c-1.35501,0.1516 -2.66396,1.34043 -3.97484,0.9654c-5.51352,-1.57734 -4.77553,-9.21907 -6.60112,-13.20138c-1.17289,-2.55853 -5.27468,-3.25864 -6.88959,-5.81698c-2.93138,4.56385 -6.05522,9.01031 -8.72417,13.75255c-1.26069,2.24002 -1.76144,4.8578 -3.04643,7.08398c-1.50109,2.60056 -3.35668,4.98778 -5.23096,7.33368c-2.04907,2.56467 -3.59778,2.927 -3.43336,6.41503c0,0 0,2.5 -2.5,2.5c-2.5,0 -2.5,-2.5 -2.5,-2.5c0.03576,-1.24149 -0.29083,-2.54799 0.10727,-3.72446c1.28328,-3.79236 2.42023,-3.31508 4.45937,-5.86051c1.70821,-2.13234 3.3997,-4.30206 4.76904,-6.66632c1.25637,-2.1692 1.73002,-4.72814 2.95357,-6.91602c2.14163,-3.82953 4.74442,-7.47075 7.10159,-11.17488c1.44308,-2.2677 2.79032,-5.13374 4.58495,-7.36017c0.04659,-0.43223 0.11072,-0.86477 0.18858,-1.29764h-0.16438v-3c0,-1.38071 1.11929,-2.5 2.5,-2.5c0.69036,0 1.31536,0.27982 1.76777,0.73223l2,2l-0.55278,0.55278l1.27009,0.94219c-0.59371,1.23594 -1.22759,2.44659 -1.89138,3.63849c-0.06337,1.0142 -0.18492,2.14445 0.53294,3.31997c1.65963,2.71772 5.46514,3.07961 7.04887,6.08258c0.73011,1.38438 0.78176,3.03168 1.2248,4.53278c0.53355,1.80778 1.0907,3.61018 1.72633,5.38464c0.11111,0.31018 0.11891,0.9016 0.44776,0.88121c0.75659,-0.04693 1.27477,-0.92714 2.02516,-1.0346c1.54312,-0.22098 3.15197,0.40272 4.676,0.07499c2.50236,-0.53812 3.75906,-3.47833 5.72566,-5.11658c3.5212,-2.93331 6.85597,-6.32457 11.20823,-7.86239l2.79057,-0.12829c0,0 2.5,0 2.5,2.5z" fill="#ff0000" stroke="none" stroke-width="0.5"/><path d="M245.125,156.5c0,-1.38071 1.11929,-2.5 2.5,-2.5c1.38071,0 2.5,1.11929 2.5,2.5c0,1.07382 -0.67702,1.98952 -1.6275,2.34353c0.39047,0.44106 0.6275,1.02108 0.6275,1.65647c0,1.38071 -1.11929,2.5 -2.5,2.5c-1.38071,0 -2.5,-1.11929 -2.5,-2.5c0,-1.07382 0.67702,-1.98952 1.6275,-2.34353c-0.39047,-0.44106 -0.6275,-1.02108 -0.6275,-1.65647z" fill="#ff0000" stroke="none" stroke-width="0.5"/><path d="M245.125,169.5c0,-1.38071 1.11929,-2.5 2.5,-2.5c1.38071,0 2.5,1.11929 2.5,2.5c0,1.38071 -1.11929,2.5 -2.5,2.5c-1.38071,0 -2.5,-1.11929 -2.5,-2.5z" fill="#ff0000" stroke="none" stroke-width="0.5"/><path d="M252.125,163.5c0,-1.38071 1.11929,-2.5 2.5,-2.5c1.38071,0 2.5,1.11929 2.5,2.5c0,1.38071 -1.11929,2.5 -2.5,2.5c-1.38071,0 -2.5,-1.11929 -2.5,-2.5z" fill="#ff0000" stroke="none" stroke-width="0.5"/><path d="M237.125,160.5c0,-1.38071 1.11929,-2.5 2.5,-2.5c1.38071,0 2.5,1.11929 2.5,2.5c0,1.38071 -1.11929,2.5 -2.5,2.5c-1.38071,0 -2.5,-1.11929 -2.5,-2.5z" fill="#ff0000" stroke="none" stroke-width="0.5"/><text transform="translate(209.625,235.5) scale(0.5,0.5)" font-size="40" xml:space="preserve" fill="#ffffff" fill-rule="nonzero" stroke="none" stroke-width="1" stroke-linecap="butt" stroke-linejoin="miter" stroke-miterlimit="10" stroke-dasharray="" stroke-dashoffset="0" font-family="Sans Serif" font-weight="normal" text-anchor="start" style="mix-blend-mode: normal"><tspan x="0" dy="0">photo</tspan></text></g></g></svg>